<svg xmlns="http://www.w3.org/2000/svg" version="1.1" xmlns:xlink="http://www.w3.org/1999/xlink" xmlns:svgjs="http://svgjs.dev/svgjs" width="2000" height="338" viewBox="0 0 2000 338"><g transform="matrix(1,0,0,1,-1.2121212121212466,0.13873961521420597)"><svg viewBox="0 0 396 67" data-background-color="#f1f1f1" preserveAspectRatio="xMidYMid meet" height="338" width="2000" xmlns="http://www.w3.org/2000/svg" xmlns:xlink="http://www.w3.org/1999/xlink"><g id="tight-bounds" transform="matrix(1,0,0,1,0.2400000000000091,-0.027501639702222747)"><svg viewBox="0 0 395.52 67.05500327940442" height="67.05500327940442" width="395.52"><g><svg viewBox="0 0 522.1343897201957 88.52074032913012" height="67.05500327940442" width="395.52"><g transform="matrix(1,0,0,1,0,10.44801709767043)"><svg viewBox="0 0 395.52 67.62470613378926" height="67.62470613378926" width="395.52"><g id="textblocktransform"><svg viewBox="0 0 395.52 67.62470613378926" height="67.62470613378926" width="395.52" id="textblock"><g><svg viewBox="0 0 395.52 67.62470613378926" height="67.62470613378926" width="395.52"><g transform="matrix(1,0,0,1,0,0)"><svg width="395.52" viewBox="2.1 -39.35 233.93 40" height="67.62470613378926" data-palette-color="#ffffff"><path d="M22.65-27.1Q25.1-27.1 26.5-25.4 27.9-23.7 27.9-19.6L27.9-19.6 27.9 0 22.95 0 22.95-18.85Q22.95-21.05 22.63-21.9 22.3-22.75 21.2-22.75L21.2-22.75Q19.1-22.75 17.3-20.1L17.3-20.1 17.3 0 12.75 0 12.75-18.85Q12.75-21.05 12.43-21.9 12.1-22.75 11-22.75L11-22.75Q8.9-22.75 7.1-20.1L7.1-20.1 7.1 0 2.1 0 2.1-26.4 6.3-26.4 6.7-23.55Q7.95-25.3 9.25-26.2 10.55-27.1 12.35-27.1L12.35-27.1Q15.85-27.1 16.85-23.75L16.85-23.75Q18.05-25.35 19.45-26.23 20.85-27.1 22.65-27.1L22.65-27.1ZM39.1-11.4Q39.35-7.55 41.32-5.63 43.3-3.7 46.3-3.7L46.3-3.7Q48.15-3.7 49.82-4.28 51.5-4.85 53.25-6L53.25-6 55.65-2.6Q53.8-1.05 51.3-0.2 48.8 0.65 46.05 0.65L46.05 0.65Q40 0.65 36.65-3.13 33.3-6.9 33.3-13.2L33.3-13.2Q33.3-17.15 34.75-20.33 36.2-23.5 38.95-25.3 41.7-27.1 45.35-27.1L45.35-27.1Q50.6-27.1 53.67-23.58 56.75-20.05 56.75-13.9L56.75-13.9Q56.75-12.4 56.6-11.4L56.6-11.4 39.1-11.4ZM45.4-22.95Q42.7-22.95 41-21 39.3-19.05 39.05-15.2L39.05-15.2 51.3-15.2Q51.2-18.95 49.7-20.95 48.2-22.95 45.4-22.95L45.4-22.95ZM86.5-1.4Q85-0.45 83 0.1 81 0.65 78.8 0.65L78.8 0.65Q74.3 0.65 71.84-1.68 69.4-4 69.4-8L69.4-8 69.4-22.3 63.55-22.3 63.55-26.4 69.4-26.4 69.4-32.3 75-32.95 75-26.4 83.95-26.4 83.3-22.3 75-22.3 75-8.05Q75-5.9 76.09-4.88 77.2-3.85 79.59-3.85L79.59-3.85Q82.25-3.85 84.5-5.1L84.5-5.1 86.5-1.4ZM114.64-6.45Q114.64-4.95 115.09-4.23 115.54-3.5 116.64-3.15L116.64-3.15 115.34 0.65Q111.19 0.15 109.89-3L109.89-3Q108.44-1.2 106.27-0.28 104.09 0.65 101.49 0.65L101.49 0.65Q97.49 0.65 95.14-1.6 92.79-3.85 92.79-7.55L92.79-7.55Q92.79-11.7 96.07-13.95 99.34-16.2 105.34-16.2L105.34-16.2 109.09-16.2 109.09-17.9Q109.09-20.4 107.59-21.55 106.09-22.7 103.24-22.7L103.24-22.7Q101.84-22.7 99.99-22.35 98.14-22 96.24-21.35L96.24-21.35 94.84-25.3Q99.59-27.1 104.09-27.1L104.09-27.1Q109.34-27.1 111.99-24.8 114.64-22.5 114.64-18.25L114.64-18.25 114.64-6.45ZM103.14-3.45Q104.89-3.45 106.52-4.35 108.14-5.25 109.09-6.85L109.09-6.85 109.09-12.7 105.99-12.7Q102.19-12.7 100.44-11.43 98.69-10.15 98.69-7.75L98.69-7.75Q98.69-5.65 99.82-4.55 100.94-3.45 103.14-3.45L103.14-3.45ZM124.44 0L124.44-26.4 129.29-26.4 129.69-22.95Q131.34-24.95 133.56-26.03 135.79-27.1 138.24-27.1L138.24-27.1Q141.89-27.1 143.74-25.05 145.59-23 145.59-19.25L145.59-19.25 145.59 0 139.99 0 139.99-16.45Q139.99-18.9 139.72-20.23 139.44-21.55 138.64-22.18 137.84-22.8 136.24-22.8L136.24-22.8Q134.44-22.8 132.81-21.7 131.19-20.6 130.04-18.95L130.04-18.95 130.04 0 124.44 0ZM172.64-27.1Q175.09-27.1 176.49-25.4 177.89-23.7 177.89-19.6L177.89-19.6 177.89 0 172.94 0 172.94-18.85Q172.94-21.05 172.61-21.9 172.29-22.75 171.19-22.75L171.19-22.75Q169.09-22.75 167.29-20.1L167.29-20.1 167.29 0 162.74 0 162.74-18.85Q162.74-21.05 162.41-21.9 162.09-22.75 160.99-22.75L160.99-22.75Q158.89-22.75 157.09-20.1L157.09-20.1 157.09 0 152.09 0 152.09-26.4 156.29-26.4 156.69-23.55Q157.94-25.3 159.24-26.2 160.54-27.1 162.34-27.1L162.34-27.1Q165.84-27.1 166.84-23.75L166.84-23.75Q168.04-25.35 169.44-26.23 170.84-27.1 172.64-27.1L172.64-27.1ZM204.64-6.45Q204.64-4.95 205.09-4.23 205.54-3.5 206.64-3.15L206.64-3.15 205.34 0.65Q201.19 0.15 199.89-3L199.89-3Q198.44-1.2 196.26-0.28 194.09 0.65 191.49 0.65L191.49 0.65Q187.49 0.65 185.14-1.6 182.79-3.85 182.79-7.55L182.79-7.55Q182.79-11.7 186.06-13.95 189.34-16.2 195.34-16.2L195.34-16.2 199.09-16.2 199.09-17.9Q199.09-20.4 197.59-21.55 196.09-22.7 193.24-22.7L193.24-22.7Q191.84-22.7 189.99-22.35 188.14-22 186.24-21.35L186.24-21.35 184.84-25.3Q189.59-27.1 194.09-27.1L194.09-27.1Q199.34-27.1 201.99-24.8 204.64-22.5 204.64-18.25L204.64-18.25 204.64-6.45ZM193.14-3.45Q194.89-3.45 196.51-4.35 198.14-5.25 199.09-6.85L199.09-6.85 199.09-12.7 195.99-12.7Q192.19-12.7 190.44-11.43 188.69-10.15 188.69-7.75L188.69-7.75Q188.69-5.65 189.81-4.55 190.94-3.45 193.14-3.45L193.14-3.45ZM224.98-39.35Q226.58-39.35 227.61-38.33 228.63-37.3 228.63-35.8L228.63-35.8Q228.63-34.3 227.61-33.3 226.58-32.3 224.98-32.3L224.98-32.3Q223.33-32.3 222.33-33.3 221.33-34.3 221.33-35.8L221.33-35.8Q221.33-37.35 222.36-38.35 223.38-39.35 224.98-39.35L224.98-39.35ZM228.83-26.4L228.83-4.1 236.03-4.1 236.03 0 215.38 0 215.38-4.1 223.23-4.1 223.23-22.3 215.63-22.3 215.63-26.4 228.83-26.4Z" opacity="1" transform="matrix(1,0,0,1,0,0)" fill="#ffffff" class="wordmark-text-0" data-fill-palette-color="primary" id="text-0"></path></svg></g></svg></g></svg></g></svg></g><g transform="matrix(1,0,0,1,411.4845701252404,0)"><svg viewBox="0 0 110.64981959495533 88.52074032913012" height="88.52074032913012" width="110.64981959495533"><g><svg xmlns="http://www.w3.org/2000/svg" xmlns:xlink="http://www.w3.org/1999/xlink" version="1.1" x="0" y="0" viewBox="0 10 99.99900062611025 80" enable-background="new 0 0 100 100" xml:space="preserve" height="88.52074032913012" width="110.64981959495533" class="icon-icon-0" data-fill-palette-color="accent" id="icon-0"><path fill="#f952b0" d="M97.327 10H2.673C1.197 10 0 11.197 0 12.673V25v62.327C0 88.803 1.197 90 2.673 90h94.653c1.476 0 2.673-1.197 2.673-2.673V25 12.673C100 11.197 98.803 10 97.327 10zM95 85H5V30h90V85zM5 25V15h90v10H5z" data-fill-palette-color="accent"></path><circle fill="#f952b0" cx="10" cy="20" r="2.0" data-fill-palette-color="accent"></circle><circle fill="#f952b0" cx="17.5" cy="20" r="2.0" data-fill-palette-color="accent"></circle><circle fill="#f952b0" cx="25" cy="20" r="2.0" data-fill-palette-color="accent"></circle><path fill="#f952b0" d="M32.116 73.384c-0.764 0.764-2.004 0.764-2.768 0L15.61 59.645c-0.909-0.909-0.909-2.382 0-3.29l13.739-13.739c0.764-0.764 2.004-0.764 2.768 0l0.643 0.643c0.833 0.833 0.833 2.184 0 3.018L21.143 57.893c-0.059 0.059-0.059 0.155 0 0.214l11.741 11.741c0.764 0.764 0.764 2.004 0 2.768L32.116 73.384z" data-fill-palette-color="accent"></path><path fill="#f952b0" d="M68.019 73.384c0.764 0.764 2.004 0.764 2.768 0l13.739-13.739c0.909-0.909 0.909-2.382 0-3.29L70.787 42.616c-0.764-0.764-2.004-0.764-2.768 0l-0.643 0.643c-0.833 0.833-0.833 2.184 0 3.018l11.616 11.616c0.059 0.059 0.059 0.155 0 0.214L67.251 69.848c-0.764 0.764-0.764 2.004 0 2.768L68.019 73.384z" data-fill-palette-color="accent"></path><path fill="#f952b0" d="M61.388 41.954c-0.137-0.501-0.467-0.927-0.917-1.184l-0.943-0.539c-0.938-0.536-2.134-0.21-2.67 0.728L38.8 72.56c-0.258 0.451-0.325 0.985-0.189 1.486 0.137 0.501 0.467 0.927 0.917 1.184l0.943 0.539c0.938 0.536 2.134 0.21 2.67-0.728L61.2 43.44C61.457 42.989 61.525 42.454 61.388 41.954z" data-fill-palette-color="accent"></path></svg></g></svg></g></svg></g><defs></defs></svg><rect width="395.52" height="67.05500327940442" fill="none" stroke="none" visibility="hidden"></rect></g></svg></g></svg>