<svg xmlns="http://www.w3.org/2000/svg" version="1.1" xmlns:xlink="http://www.w3.org/1999/xlink" xmlns:svgjs="http://svgjs.dev/svgjs" width="128" height="128" viewBox="0 0 128 128"><g transform="matrix(0.8046875,0,0,0.8046875,12.760752631578946,23.169136967655803)"><svg viewBox="0 0 95 76" data-background-color="#f1f1f1" preserveAspectRatio="xMidYMid meet" height="102" width="128" xmlns="http://www.w3.org/2000/svg" xmlns:xlink="http://www.w3.org/1999/xlink"><g id="tight-bounds" transform="matrix(1,0,0,1,-0.24049999999999727,-0.1927816886879583)"><svg viewBox="0 0 95.481 76.38556337737593" height="76.38556337737593" width="95.481"><g><svg viewBox="0 0 95.481 76.38556337737593" height="76.38556337737593" width="95.481"><g><svg viewBox="0 0 95.481 76.38556337737593" height="76.38556337737593" width="95.481"><g id="textblocktransform"><svg viewBox="0 0 95.481 76.38556337737593" height="76.38556337737593" width="95.481" id="textblock"><g><svg viewBox="0 0 95.481 76.38556337737593" height="76.38556337737593" width="95.481"><g><svg viewBox="0 0 95.481 76.38556337737593" height="76.38556337737593" width="95.481"><g><svg xmlns="http://www.w3.org/2000/svg" xmlns:xlink="http://www.w3.org/1999/xlink" version="1.1" x="0" y="0" viewBox="0 10 99.99900062611025 80" enable-background="new 0 0 100 100" xml:space="preserve" height="76.38556337737593" width="95.481" class="icon-icon-0" data-fill-palette-color="accent" id="icon-0"><path fill="#f952b0" d="M97.327 10H2.673C1.197 10 0 11.197 0 12.673V25v62.327C0 88.803 1.197 90 2.673 90h94.653c1.476 0 2.673-1.197 2.673-2.673V25 12.673C100 11.197 98.803 10 97.327 10zM95 85H5V30h90V85zM5 25V15h90v10H5z" data-fill-palette-color="accent"></path><circle fill="#f952b0" cx="10" cy="20" r="2.0" data-fill-palette-color="accent"></circle><circle fill="#f952b0" cx="17.5" cy="20" r="2.0" data-fill-palette-color="accent"></circle><circle fill="#f952b0" cx="25" cy="20" r="2.0" data-fill-palette-color="accent"></circle><path fill="#f952b0" d="M32.116 73.384c-0.764 0.764-2.004 0.764-2.768 0L15.61 59.645c-0.909-0.909-0.909-2.382 0-3.29l13.739-13.739c0.764-0.764 2.004-0.764 2.768 0l0.643 0.643c0.833 0.833 0.833 2.184 0 3.018L21.143 57.893c-0.059 0.059-0.059 0.155 0 0.214l11.741 11.741c0.764 0.764 0.764 2.004 0 2.768L32.116 73.384z" data-fill-palette-color="accent"></path><path fill="#f952b0" d="M68.019 73.384c0.764 0.764 2.004 0.764 2.768 0l13.739-13.739c0.909-0.909 0.909-2.382 0-3.29L70.787 42.616c-0.764-0.764-2.004-0.764-2.768 0l-0.643 0.643c-0.833 0.833-0.833 2.184 0 3.018l11.616 11.616c0.059 0.059 0.059 0.155 0 0.214L67.251 69.848c-0.764 0.764-0.764 2.004 0 2.768L68.019 73.384z" data-fill-palette-color="accent"></path><path fill="#f952b0" d="M61.388 41.954c-0.137-0.501-0.467-0.927-0.917-1.184l-0.943-0.539c-0.938-0.536-2.134-0.21-2.67 0.728L38.8 72.56c-0.258 0.451-0.325 0.985-0.189 1.486 0.137 0.501 0.467 0.927 0.917 1.184l0.943 0.539c0.938 0.536 2.134 0.21 2.67-0.728L61.2 43.44C61.457 42.989 61.525 42.454 61.388 41.954z" data-fill-palette-color="accent"></path></svg></g></svg></g></svg></g></svg></g></svg></g></svg></g><defs></defs></svg><rect width="95.481" height="76.38556337737593" fill="none" stroke="none" visibility="hidden"></rect></g></svg></g></svg>