<svg xmlns="http://www.w3.org/2000/svg" version="1.1" xmlns:xlink="http://www.w3.org/1999/xlink" xmlns:svgjs="http://svgjs.dev/svgjs" width="2000" height="409" viewBox="0 0 2000 409"><g transform="matrix(1,0,0,1,-1.2121212121212466,-0.41183730067240276)"><svg viewBox="0 0 396 81" data-background-color="#f1f1f1" preserveAspectRatio="xMidYMid meet" height="409" width="2000" xmlns="http://www.w3.org/2000/svg" xmlns:xlink="http://www.w3.org/1999/xlink"><g id="tight-bounds" transform="matrix(1,0,0,1,0.2400000000000091,0.08156191040211525)"><svg viewBox="0 0 395.52 80.83687617919576" height="80.83687617919576" width="395.52"><g><svg viewBox="0 0 502.992262062964 102.80219257553956" height="80.83687617919576" width="395.52"><g transform="matrix(1,0,0,1,0,12.133643050359709)"><svg viewBox="0 0 395.52 78.53490647482015" height="78.53490647482015" width="395.52"><g id="textblocktransform"><svg viewBox="0 0 395.52 78.53490647482015" height="78.53490647482015" width="395.52" id="textblock"><g><svg viewBox="0 0 395.52 78.53490647482015" height="78.53490647482015" width="395.52"><g transform="matrix(1,0,0,1,0,0)"><svg width="395.52" viewBox="1.65 -34.5 173.73999999999998 34.5" height="78.53490647482015" data-palette-color="#060606"><path d="M17.85-29.8L17.85 0 12.05 0 12.05-29.8 1.65-29.8 1.65-34.5 28.4-34.5 27.8-29.8 17.85-29.8ZM51.05-8.3L38.75-8.3 36.35 0 30.4 0 41.4-34.5 48.6-34.5 59.6 0 53.45 0 51.05-8.3ZM39.95-12.8L49.85-12.8 44.9-30 39.95-12.8ZM78.9 0L67.9-29.35Q68.7-21.15 68.7-15.65L68.7-15.65 68.7 0 63.55 0 63.55-34.5 71.09-34.5 82.09-5.15Q81.75-8.85 81.52-11.83 81.3-14.8 81.3-18.8L81.3-18.8 81.3-34.5 86.45-34.5 86.45 0 78.9 0ZM116.79-34.5L118.74 0 113.39 0 112.59-16.8Q112.44-20.1 112.44-23.15L112.44-23.15Q112.44-27.1 112.59-29.4L112.59-29.4 107.49-6.1 102.44-6.1 96.99-29.4Q97.19-26.85 97.19-21.55L97.19-21.55Q97.19-18.35 97.14-16.75L97.14-16.75 96.44 0 91.24 0 93.19-34.5 100.14-34.5 105.09-11.4 109.79-34.5 116.79-34.5ZM141.04-8.3L128.74-8.3 126.34 0 120.39 0 131.39-34.5 138.59-34.5 149.59 0 143.44 0 141.04-8.3ZM129.94-12.8L139.84-12.8 134.89-30 129.94-12.8ZM175.39-34.5L175.39-30.1 167.89-30.1 167.89-4.45 175.39-4.45 175.39 0 154.59 0 154.59-4.45 162.09-4.45 162.09-30.1 154.59-30.1 154.59-34.5 175.39-34.5Z" opacity="1" transform="matrix(1,0,0,1,0,0)" fill="#ffffff" class="wordmark-text-0" data-fill-palette-color="primary" id="text-0"></path></svg></g></svg></g></svg></g></svg></g><g transform="matrix(1,0,0,1,414.0602065809496,0)"><svg viewBox="0 0 88.9320554820144 102.80219257553956" height="102.80219257553956" width="88.9320554820144"><g><svg xmlns="http://www.w3.org/2000/svg" xmlns:xlink="http://www.w3.org/1999/xlink" version="1.1" x="0" y="0" viewBox="17.3 12.2 65.4 75.6" style="enable-background:new 0 0 100 100;" xml:space="preserve" height="102.80219257553956" width="88.9320554820144" class="icon-icon-0" data-fill-palette-color="accent" id="icon-0"><path d="M50 12.2L17.3 31.1v37.8L50 87.8l32.7-18.9V31.1L50 12.2zM32.1 37.4L50 16l17 21.4H32.1zM67.3 39.4L50 70.4l-18.2-31H67.3zM48.1 71l-27.7-4.5 9.8-25.9L48.1 71zM68.9 40.7l10.7 25.9-27.7 4.5L68.9 40.7zM69.2 37.1L52.6 16l27 15.6L69.2 37.1zM29.8 37.1l-9.4-5.5 26.8-15.5L29.8 37.1zM28.8 38.8l-9.5 25V33.3L28.8 38.8zM49 73.2v11.7L20.9 68.7 49 73.2zM51 73.2l28.1-4.5L51 84.9V73.2zM70.3 38.8l10.5-5.6v30.9L70.3 38.8z" fill="#ffffff" data-fill-palette-color="accent"></path></svg></g></svg></g></svg></g><defs></defs></svg><rect width="395.52" height="80.83687617919576" fill="none" stroke="none" visibility="hidden"></rect></g></svg></g></svg>