<svg xmlns="http://www.w3.org/2000/svg" version="1.1" xmlns:xlink="http://www.w3.org/1999/xlink" xmlns:svgjs="http://svgjs.dev/svgjs" width="128" height="128" viewBox="0 0 128 128"><g transform="matrix(0.8046875,0,0,0.8046875,12.250965146299485,5.555233470394732)"><svg viewBox="0 0 83 95" data-background-color="#f1f1f1" preserveAspectRatio="xMidYMid meet" height="146" width="128" xmlns="http://www.w3.org/2000/svg" xmlns:xlink="http://www.w3.org/1999/xlink"><g id="tight-bounds" transform="matrix(1,0,0,1,0.20067857142856838,-0.24049999999999727)"><svg viewBox="0 0 82.59864285714286 95.481" height="95.481" width="82.59864285714286"><g><svg viewBox="0 0 82.59864285714286 95.481" height="95.481" width="82.59864285714286"><g><svg viewBox="0 0 82.59864285714286 95.481" height="95.481" width="82.59864285714286"><g id="textblocktransform"><svg viewBox="0 0 82.59864285714286 95.481" height="95.481" width="82.59864285714286" id="textblock"><g><svg viewBox="0 0 82.59864285714286 95.481" height="95.481" width="82.59864285714286"><g><svg viewBox="0 0 82.59864285714286 95.481" height="95.481" width="82.59864285714286"><g><svg xmlns="http://www.w3.org/2000/svg" xmlns:xlink="http://www.w3.org/1999/xlink" version="1.1" x="0" y="0" viewBox="17.3 12.2 65.4 75.6" style="enable-background:new 0 0 100 100;" xml:space="preserve" height="95.481" width="82.59864285714286" class="icon-icon-0" data-fill-palette-color="accent" id="icon-0"><path d="M50 12.2L17.3 31.1v37.8L50 87.8l32.7-18.9V31.1L50 12.2zM32.1 37.4L50 16l17 21.4H32.1zM67.3 39.4L50 70.4l-18.2-31H67.3zM48.1 71l-27.7-4.5 9.8-25.9L48.1 71zM68.9 40.7l10.7 25.9-27.7 4.5L68.9 40.7zM69.2 37.1L52.6 16l27 15.6L69.2 37.1zM29.8 37.1l-9.4-5.5 26.8-15.5L29.8 37.1zM28.8 38.8l-9.5 25V33.3L28.8 38.8zM49 73.2v11.7L20.9 68.7 49 73.2zM51 73.2l28.1-4.5L51 84.9V73.2zM70.3 38.8l10.5-5.6v30.9L70.3 38.8z" fill="#ffffff" data-fill-palette-color="accent"></path></svg></g></svg></g></svg></g></svg></g></svg></g></svg></g><defs></defs></svg><rect width="82.59864285714286" height="95.481" fill="none" stroke="none" visibility="hidden"></rect></g></svg></g></svg>